<svg xmlns="http://www.w3.org/2000/svg" viewBox="0 0 120 120"><defs><style>.cls-1{fill:#ffca28;}.cls-2{fill:#3e3e3e;}</style></defs><g id="Layer_2" data-name="Layer 2"><g id="Layer_1-2" data-name="Layer 1"><rect class="cls-1" width="120" height="120"/><path class="cls-2" d="M72.86,99.81,81.69,94c.69,2.17,5.08,7.34,10.62,7.34s8.11-3,8.11-5c0-5.47-5.66-7.39-8.37-8.32-.45-.15-.81-.27-1.06-.38l-.57-.23c-3-1.15-14.17-5.41-14.17-17.75,0-13.6,13.12-15.16,16.09-15.16,1.94,0,11.28.24,15.92,9l-8.57,6c-1.88-3.8-5-5.06-6.92-5.06C88,64.32,87,67.8,87,69.38c0,4.45,5.16,6.44,9.52,8.12,1.14.44,2.22.86,3.14,1.3,4.75,2.24,11.74,5.91,11.74,17.47,0,5.79-4.86,15.16-17.08,15.16C77.93,111.43,73.58,101.57,72.86,99.81Z"/><path class="cls-2" d="M30,101l9.21-5.85c.72,2.18,3.52,6.19,7.59,6.19S53,97.13,53,95.12V55.72H64.28v39.4c.18,5.44-2.83,16.31-16.14,16.31C35.91,111.43,30.82,104.16,30,101Z"/></g></g></svg>