<svg xmlns="http://www.w3.org/2000/svg" viewBox="0 0 120 120"><defs><style>.cls-1{fill:#fff;}.cls-2{fill:#00759d;fill-rule:evenodd;}</style></defs><g id="Layer_2" data-name="Layer 2"><g id="Layer_1-2" data-name="Layer 1"><rect class="cls-1" width="120" height="120"/><g id="Icons"><g id="Color-"><path id="Wordpress" class="cls-2" d="M24,60A36,36,0,0,0,44.31,92.36l-17.16-47A35.9,35.9,0,0,0,24,60Zm60.24-1.82a18.89,18.89,0,0,0-3-9.91c-1.82-3-3.53-5.47-3.53-8.44a6.22,6.22,0,0,1,6-6.38c.16,0,.31,0,.46,0A36,36,0,0,0,30,40.25c.85,0,1.64,0,2.32,0,3.76,0,9.58-.46,9.58-.46a1.49,1.49,0,0,1,.23,3s-1.95.22-4.11.34l13.09,39,7.87-23.6-5.6-15.35c-1.94-.12-3.77-.34-3.77-.34a1.49,1.49,0,0,1,.23-3s5.93.46,9.47.46c3.76,0,9.58-.46,9.58-.46a1.49,1.49,0,0,1,.23,3s-1.95.22-4.11.34L78,81.79l3.59-12C83.09,64.83,84.28,61.26,84.28,58.18Zm7.27-15.43a26.54,26.54,0,0,1,.25,3.69,34,34,0,0,1-2.74,12.88l-11,31.76A35.95,35.95,0,0,0,91.55,42.75ZM60.63,63.14,49.84,94.49a35.91,35.91,0,0,0,22.1-.57c-.09-.15-.18-.32-.26-.49Z"/></g></g></g></g></svg>