<svg xmlns="http://www.w3.org/2000/svg" viewBox="0 0 120 120"><defs><style>.cls-1{fill:#007acc;}.cls-2{fill:#fff;}</style></defs><g id="Layer_2" data-name="Layer 2"><g id="Layer_1-2" data-name="Layer 1"><polygon class="cls-1" points="0 60 0 120 60 120 120 120 120 60 120 0 60 0 0 0 0 60"/><path class="cls-2" d="M26.54,60.4l0,4.91H42.12v44.38H53.17V65.31H68.78V60.49a46.64,46.64,0,0,0-.13-5c-.06-.08-9.56-.11-21.08-.09l-21,0Z"/><path class="cls-2" d="M96.83,55.36a15,15,0,0,1,7.5,4.33,19.56,19.56,0,0,1,2.88,3.84c0,.16-5.18,3.66-8.34,5.62-.12.08-.58-.42-1.09-1.18a6.81,6.81,0,0,0-5.64-3.39c-3.64-.25-6,1.66-6,4.84a4.42,4.42,0,0,0,.51,2.25c.8,1.66,2.29,2.65,7,4.66,8.59,3.7,12.26,6.14,14.55,9.6,2.55,3.87,3.12,10,1.39,14.63-1.9,5-6.63,8.38-13.28,9.51a36.87,36.87,0,0,1-9.14-.1A22,22,0,0,1,75,103.61c-1.1-1.22-3.26-4.4-3.12-4.63a8.86,8.86,0,0,1,1.1-.7l4.46-2.57,3.45-2,.72,1.06a16,16,0,0,0,4.55,4.36c3.83,2,9.09,1.74,11.68-.59a5.22,5.22,0,0,0,.67-6.64c-.94-1.34-2.84-2.46-8.25-4.8-6.19-2.67-8.86-4.33-11.3-7a15.73,15.73,0,0,1-3.29-6,24,24,0,0,1-.21-7.65c1.27-6,5.79-10.16,12.3-11.39A30.57,30.57,0,0,1,96.83,55.36Z"/></g></g></svg>