<svg xmlns="http://www.w3.org/2000/svg" viewBox="0 0 120 120"><defs><style>.cls-1{fill:#fff;}.cls-2,.cls-3{fill:#53c1de;}.cls-3{fill-rule:evenodd;}</style></defs><g id="Layer_2" data-name="Layer 2"><g id="Layer_1-2" data-name="Layer 1"><rect class="cls-1" width="120" height="120"/><path class="cls-2" d="M67.05,59.94a7.05,7.05,0,1,0-7,6.83A6.95,6.95,0,0,0,67.05,59.94Z"/><path class="cls-3" d="M82.88,47.25c1.49-5.86,3.36-16.73-3.23-20.42S64.55,30.2,60,34.42c-4.5-4.18-13.28-11.18-19.87-7.49s-4.53,14.38-3,20.28C31,48.89,20.55,52.52,20.55,59.94S31,71.28,37.11,73c-1.53,5.94-3.45,16.47,3.12,20.15S55.59,90,60.15,85.7c4.53,4.25,13,11.13,19.56,7.44s4.87-14.42,3.34-20.35c5.9-1.69,16.4-5.55,16.4-12.85S88.91,48.93,82.88,47.25Zm-.74,22.39a75.9,75.9,0,0,0-4-9.69A75,75,0,0,0,82,50.4c4.42,1.24,14.1,4.08,14.1,9.54S86.79,68.31,82.14,69.64ZM78,90.32c-4.9,2.74-12.18-3.84-15.53-7a77.15,77.15,0,0,0,6.62-8.14,81.48,81.48,0,0,0,10.68-1.6C80.86,77.82,82.94,87.55,78,90.32Zm-36.11,0C37,87.54,39.25,78.13,40.38,73.76A80.26,80.26,0,0,0,51,75.26a80.24,80.24,0,0,0,6.77,8.11C54.94,86,46.83,93,41.91,90.28Zm-18-30.34c0-5.53,9.63-8.35,14.14-9.59A76.49,76.49,0,0,0,41.91,60a77.62,77.62,0,0,0-3.9,9.8C33.71,68.62,23.92,65.47,23.92,59.94ZM41.86,29.76c4.92-2.76,12.55,4,15.81,7A80.32,80.32,0,0,0,51,44.81,85.66,85.66,0,0,0,40.42,46.4C39.2,41.64,37,32.52,41.86,29.76ZM71.52,48.37a70.77,70.77,0,0,1,7.19,1.22,67.49,67.49,0,0,1-2.52,6.58C74.74,53.51,73.19,50.9,71.52,48.37ZM60,39.09a70.1,70.1,0,0,1,4.64,5.43q-4.67-.21-9.32,0A71.31,71.31,0,0,1,60,39.09ZM43.84,56.17c-1-2.26-1.82-4.48-2.51-6.62,2.26-.49,4.66-.89,7.16-1.19Q46,52.16,43.84,56.17Zm4.72,15.58a72.56,72.56,0,0,1-7.27-1.14,67.7,67.7,0,0,1,2.56-6.75Q46,67.91,48.56,71.75ZM60.13,81c-1.6-1.67-3.19-3.52-4.75-5.51,3.13.12,6.26.12,9.38,0A66.87,66.87,0,0,1,60.13,81ZM76.22,63.74a70.65,70.65,0,0,1,2.65,6.73c-2.29.51-4.76.91-7.36,1.22C73.19,69.1,74.77,66.45,76.22,63.74Zm-9,8.34a109.38,109.38,0,0,1-14.37,0A92,92,0,0,1,45.63,60a90.94,90.94,0,0,1,7.19-12.08,98.6,98.6,0,0,1,14.38,0,102.54,102.54,0,0,1,7.2,12A102.49,102.49,0,0,1,67.23,72.08ZM78,29.67c4.92,2.75,2.73,12.52,1.66,16.77a81.93,81.93,0,0,0-10.55-1.62,77.85,77.85,0,0,0-6.67-8.07C65.71,33.66,73.09,26.94,78,29.67Z"/></g></g></svg>