<svg xmlns="http://www.w3.org/2000/svg" viewBox="0 0 120 120"><defs><style>.cls-1{fill:#fff;}.cls-2{fill:#8993be;}</style></defs><g id="Layer_2" data-name="Layer 2"><g id="Layer_1-2" data-name="Layer 1"><rect class="cls-1" width="120" height="120"/><path class="cls-2" d="M36,53.69a6.73,6.73,0,0,1,5,1.38,5.48,5.48,0,0,1,.59,4.74,8,8,0,0,1-2.62,5A9.66,9.66,0,0,1,33,66.32H29l2.46-12.6ZM20,79.07h6.57l1.55-8h5.62a20.18,20.18,0,0,0,6.13-.8,11.51,11.51,0,0,0,4.37-2.62,13.08,13.08,0,0,0,4.12-7.37,9.36,9.36,0,0,0-1.57-8.35,10.47,10.47,0,0,0-8.31-3H25.88Z"/><path class="cls-2" d="M53.19,40.93h6.52l-1.58,8h5.81a11.31,11.31,0,0,1,7.55,1.92A6.32,6.32,0,0,1,72.74,57L70,71.05h-6.6L66,57.72a3.64,3.64,0,0,0-.33-3.1,4.53,4.53,0,0,0-3.27-.82h-5.2L53.85,71.06H47.31Z"/><path class="cls-2" d="M87.25,53.69a6.74,6.74,0,0,1,5,1.38,5.48,5.48,0,0,1,.59,4.74,8,8,0,0,1-2.63,5,9.64,9.64,0,0,1-5.92,1.51h-4L82.73,53.7Zm-16,25.38h6.57l1.56-8H85a20.2,20.2,0,0,0,6.14-.8,11.51,11.51,0,0,0,4.37-2.62,13.1,13.1,0,0,0,4.11-7.37,9.39,9.39,0,0,0-1.57-8.35,10.49,10.49,0,0,0-8.31-3H77.11Z"/></g></g></svg>